<?xml version="1.0" encoding="utf-8"?>
<!-- Generator: Adobe Illustrator 16.0.0, SVG Export Plug-In . SVG Version: 6.00 Build 0)  -->
<!DOCTYPE svg PUBLIC "-//W3C//DTD SVG 1.1//EN" "http://www.w3.org/Graphics/SVG/1.1/DTD/svg11.dtd">
<svg version="1.1" id="Layer_1" xmlns="http://www.w3.org/2000/svg" xmlns:xlink="http://www.w3.org/1999/xlink" x="0px" y="0px"
	 width="353px" height="492px" viewBox="303.5 54 353 492" enable-background="new 303.5 54 353 492" xml:space="preserve">
<g>
	<g>
		<defs>
			<rect id="SVGID_1_" x="303.5" y="54" width="353" height="492"/>
		</defs>
		<clipPath id="SVGID_2_">
			<use xlink:href="#SVGID_1_"  overflow="visible"/>
		</clipPath>
		<path clip-path="url(#SVGID_2_)" fill="#142B3A" d="M476.311,546c-94.393,0-170.232-76.061-172.639-173.16l-0.019-1.358
			l-0.157-210.068l106.52-0.083l0.15,209.289c1.206,36.928,30.148,65.775,66.145,65.775c35.977,0,64.922-28.835,66.135-65.764
			l0.078-209.284l106.513,0.045l-0.099,211.448C646.529,469.939,570.698,546,476.311,546"/>
	</g>
</g>
<polygon fill="#142B3A" points="386.452,133.229 446.779,71.145 369.787,54.001 "/>
<polygon fill="#142B3A" points="585.566,54 508.573,71.144 568.906,133.229 "/>
<g>
	<g>
		<defs>
			<rect id="SVGID_3_" x="303.5" y="54" width="353" height="492"/>
		</defs>
		<clipPath id="SVGID_4_">
			<use xlink:href="#SVGID_3_"  overflow="visible"/>
		</clipPath>
		<path clip-path="url(#SVGID_4_)" fill="#142B3A" d="M627.643,519.466h4.709c3.807,0,7.381-0.196,7.381-4.639
			c0-3.925-3.254-4.385-6.174-4.385h-5.916V519.466z M623.835,506.91h10.042c6.542,0,9.658,2.491,9.658,8.113
			c0,5.033-3.172,7.189-7.237,7.646l7.869,12.428h-4.122l-7.5-12.102h-4.902v12.102h-3.808V506.91z M632.664,541.635
			c11.122,0,20.016-9.023,20.016-20.929c0-11.703-8.894-20.658-20.016-20.658c-11.12,0-20.012,8.955-20.012,20.922
			C612.652,532.611,621.544,541.635,632.664,541.635 M632.664,496.516c12.97,0,23.832,10.459,23.832,24.19
			c0,13.996-10.862,24.463-23.832,24.463c-12.958,0-23.83-10.467-23.83-24.199C608.834,506.975,619.706,496.516,632.664,496.516"/>
	</g>
</g>
</svg>
