<svg xmlns="http://www.w3.org/2000/svg" xmlns:xlink="http://www.w3.org/1999/xlink" width="353" height="492" viewBox="303.5 54 353 492"><defs><path id="a" d="M303.5 54h353v492h-353z"/></defs><clipPath id="b"><use xlink:href="#a" overflow="visible"/></clipPath><path clip-path="url(#b)" fill="#142B3A" d="M476.31 546c-94.392 0-170.23-76.06-172.638-173.16l-.02-1.358-.156-210.068 106.52-.083.15 209.29c1.206 36.928 30.148 65.775 66.145 65.775 35.978 0 64.923-28.835 66.136-65.764l.078-209.283 106.513.045-.1 211.448C646.53 469.94 570.698 546 476.312 546"/><path fill="#142B3A" d="M386.452 133.23l60.327-62.085L369.786 54M585.566 54l-76.993 17.144 60.333 62.085"/><g><defs><path id="c" d="M303.5 54h353v492h-353z"/></defs><clipPath id="d"><use xlink:href="#c" overflow="visible"/></clipPath><path clip-path="url(#d)" fill="#142B3A" d="M627.643 519.466h4.71c3.806 0 7.38-.196 7.38-4.64 0-3.924-3.254-4.384-6.174-4.384h-5.917v9.024zm-3.808-12.556h10.042c6.542 0 9.658 2.49 9.658 8.113 0 5.033-3.172 7.19-7.237 7.646l7.87 12.427h-4.123l-7.5-12.102h-4.902v12.102h-3.808V506.91zm8.83 34.725c11.12 0 20.015-9.023 20.015-20.93 0-11.702-8.894-20.657-20.016-20.657-11.12 0-20.012 8.955-20.012 20.922 0 11.64 8.892 20.665 20.012 20.665m0-45.12c12.97 0 23.832 10.46 23.832 24.19 0 13.997-10.862 24.464-23.832 24.464-12.958 0-23.83-10.468-23.83-24.2 0-13.995 10.872-24.454 23.83-24.454"/></g></svg>