<svg xmlns="http://www.w3.org/2000/svg" xmlns:xlink="http://www.w3.org/1999/xlink" width="353" height="492" viewBox="303.5 54 353 492" enable-background="new 303.5 54 353 492"><defs><path id="a" d="M303.5 54h353v492h-353z"/></defs><clipPath id="b"><use xlink:href="#a" overflow="visible"/></clipPath><path clip-path="url(#b)" fill="#142B3A" d="M476.311 546c-94.393 0-170.232-76.061-172.639-173.16l-.019-1.358-.157-210.068 106.52-.083.15 209.289c1.206 36.928 30.148 65.775 66.145 65.775 35.977 0 64.922-28.835 66.135-65.764l.078-209.284 106.513.045-.099 211.448c-2.409 97.099-78.24 173.16-172.627 173.16"/><path fill="#142B3A" d="M386.452 133.229l60.327-62.084-76.992-17.144zM585.566 54l-76.993 17.144 60.333 62.085z"/><defs><path id="c" d="M303.5 54h353v492h-353z"/></defs><clipPath id="d"><use xlink:href="#c" overflow="visible"/></clipPath><path clip-path="url(#d)" fill="#142B3A" d="M627.643 519.466h4.709c3.807 0 7.381-.196 7.381-4.639 0-3.925-3.254-4.385-6.174-4.385h-5.916v9.024zm-3.808-12.556h10.042c6.542 0 9.658 2.491 9.658 8.113 0 5.033-3.172 7.189-7.237 7.646l7.869 12.428h-4.122l-7.5-12.102h-4.902v12.102h-3.808v-28.187zm8.829 34.725c11.122 0 20.016-9.023 20.016-20.929 0-11.703-8.894-20.658-20.016-20.658-11.12 0-20.012 8.955-20.012 20.922 0 11.641 8.892 20.665 20.012 20.665m0-45.119c12.97 0 23.832 10.459 23.832 24.19 0 13.996-10.862 24.463-23.832 24.463-12.958 0-23.83-10.467-23.83-24.199 0-13.995 10.872-24.454 23.83-24.454"/></svg>